<svg xmlns="http://www.w3.org/2000/svg" xmlns:xlink="http://www.w3.org/1999/xlink" version="1.1" width="256" height="256" viewBox="0 0 256 256" xml:space="preserve">
<g style="stroke: none; stroke-width: 0; stroke-dasharray: none; stroke-linecap: butt; stroke-linejoin: miter; stroke-miterlimit: 10; fill: none; fill-rule: nonzero; opacity: 1;" transform="translate(1.4065934065934016 1.4065934065934016) scale(2.81 2.81)">
	<path d="M 30.595 61.542 c 3.267 2.586 5.245 6.464 5.245 10.631 v 0.554 c 5.589 1.298 11.793 1.055 18.32 0 v -0.556 c 0 -4.094 1.85 -7.989 5.082 -10.501 c 5.469 -4.249 8.988 -10.888 8.988 -18.35 c 0 -13.326 -11.221 -24.031 -24.73 -23.183 c -11.488 0.721 -20.861 10.015 -21.671 21.497 C 21.26 49.701 24.813 56.967 30.595 61.542 z" style="stroke: none; stroke-width: 1; stroke-dasharray: none; stroke-linecap: butt; stroke-linejoin: miter; stroke-miterlimit: 10; fill: rgb(255,216,51); fill-rule: nonzero; opacity: 1;" transform=" matrix(1 0 0 1 0 0) " stroke-linecap="round"/>
	<path d="M 30.595 61.542 c 3.267 2.586 5.245 6.464 5.245 10.631 v 0.554 c 2.352 0 4.537 2.011 6.246 2.011 v -2.565 c 0 -4.167 -1.978 -8.045 -5.245 -10.631 c -5.781 -4.575 -9.335 -11.841 -8.765 -19.908 c 0.773 -10.951 9.34 -19.893 20.097 -21.324 c -1.516 -0.207 -3.078 -0.273 -4.672 -0.173 c -11.488 0.721 -20.861 10.015 -21.671 21.497 C 21.26 49.701 24.813 56.967 30.595 61.542 z" style="stroke: none; stroke-width: 1; stroke-dasharray: none; stroke-linecap: butt; stroke-linejoin: miter; stroke-miterlimit: 10; fill: rgb(240,203,48); fill-rule: nonzero; opacity: 1;" transform=" matrix(1 0 0 1 0 0) " stroke-linecap="round"/>
	<path d="M 35.84 72.727 v 6.208 c 0 1.173 0.951 2.125 2.125 2.125 h 0.147 v 5.094 c 0 2.124 1.722 3.847 3.847 3.847 h 6.083 c 2.125 0 3.847 -1.722 3.847 -3.847 V 81.06 h 0.147 c 1.173 0 2.125 -0.951 2.125 -2.125 v -6.208 H 35.84 z" style="stroke: none; stroke-width: 1; stroke-dasharray: none; stroke-linecap: butt; stroke-linejoin: miter; stroke-miterlimit: 10; fill: rgb(226,223,226); fill-rule: nonzero; opacity: 1;" transform=" matrix(1 0 0 1 0 0) " stroke-linecap="round"/>
	<path d="M 43.465 86.153 V 81.06 h 0.745 c -1.173 0 -2.125 -0.951 -2.125 -2.125 v -6.208 H 35.84 v 6.208 c 0 1.173 0.951 2.125 2.125 2.125 h 0.147 v 5.094 c 0 2.124 1.722 3.847 3.847 3.847 h 5.354 C 45.187 90 43.465 88.278 43.465 86.153 z" style="stroke: none; stroke-width: 1; stroke-dasharray: none; stroke-linecap: butt; stroke-linejoin: miter; stroke-miterlimit: 10; fill: rgb(193,191,193); fill-rule: nonzero; opacity: 1;" transform=" matrix(1 0 0 1 0 0) " stroke-linecap="round"/>
	<path d="M 86.492 44.508 h -9.979 c -0.833 0 -1.508 -0.675 -1.508 -1.508 c 0 -0.833 0.676 -1.508 1.508 -1.508 h 9.979 C 87.325 41.492 88 42.167 88 43 C 88 43.833 87.325 44.508 86.492 44.508 z" style="stroke: none; stroke-width: 1; stroke-dasharray: none; stroke-linecap: butt; stroke-linejoin: miter; stroke-miterlimit: 10; fill: rgb(255,216,51); fill-rule: nonzero; opacity: 1;" transform=" matrix(1 0 0 1 0 0) " stroke-linecap="round"/>
	<path d="M 13.487 44.508 H 3.508 C 2.675 44.508 2 43.833 2 43 c 0 -0.833 0.675 -1.508 1.508 -1.508 h 9.979 c 0.833 0 1.508 0.675 1.508 1.508 C 14.995 43.833 14.32 44.508 13.487 44.508 z" style="stroke: none; stroke-width: 1; stroke-dasharray: none; stroke-linecap: butt; stroke-linejoin: miter; stroke-miterlimit: 10; fill: rgb(255,216,51); fill-rule: nonzero; opacity: 1;" transform=" matrix(1 0 0 1 0 0) " stroke-linecap="round"/>
	<path d="M 45 12.996 c -0.833 0 -1.508 -0.675 -1.508 -1.508 V 1.508 C 43.491 0.675 44.167 0 45 0 c 0.833 0 1.508 0.675 1.508 1.508 v 9.979 C 46.508 12.321 45.833 12.996 45 12.996 z" style="stroke: none; stroke-width: 1; stroke-dasharray: none; stroke-linecap: butt; stroke-linejoin: miter; stroke-miterlimit: 10; fill: rgb(255,216,51); fill-rule: nonzero; opacity: 1;" transform=" matrix(1 0 0 1 0 0) " stroke-linecap="round"/>
	<path d="M 72.292 28.753 c -0.52 0 -1.028 -0.271 -1.307 -0.755 c -0.416 -0.721 -0.17 -1.644 0.552 -2.06 l 8.642 -4.99 c 0.721 -0.416 1.644 -0.17 2.06 0.552 c 0.416 0.721 0.17 1.644 -0.552 2.06 l -8.642 4.99 C 72.808 28.688 72.548 28.753 72.292 28.753 z" style="stroke: none; stroke-width: 1; stroke-dasharray: none; stroke-linecap: butt; stroke-linejoin: miter; stroke-miterlimit: 10; fill: rgb(255,216,51); fill-rule: nonzero; opacity: 1;" transform=" matrix(1 0 0 1 0 0) " stroke-linecap="round"/>
	<path d="M 9.068 65.255 c -0.521 0 -1.028 -0.27 -1.308 -0.754 c -0.417 -0.722 -0.169 -1.644 0.552 -2.06 l 8.642 -4.99 c 0.722 -0.417 1.644 -0.17 2.06 0.552 c 0.417 0.722 0.169 1.644 -0.552 2.06 l -8.642 4.99 C 9.583 65.19 9.324 65.255 9.068 65.255 z" style="stroke: none; stroke-width: 1; stroke-dasharray: none; stroke-linecap: butt; stroke-linejoin: miter; stroke-miterlimit: 10; fill: rgb(255,216,51); fill-rule: nonzero; opacity: 1;" transform=" matrix(1 0 0 1 0 0) " stroke-linecap="round"/>
	<path d="M 60.755 17.218 c -0.256 0 -0.516 -0.065 -0.753 -0.203 c -0.722 -0.416 -0.968 -1.339 -0.552 -2.06 l 4.99 -8.642 c 0.416 -0.722 1.34 -0.969 2.06 -0.552 c 0.722 0.416 0.968 1.339 0.552 2.06 l -4.99 8.642 C 61.783 16.948 61.276 17.218 60.755 17.218 z" style="stroke: none; stroke-width: 1; stroke-dasharray: none; stroke-linecap: butt; stroke-linejoin: miter; stroke-miterlimit: 10; fill: rgb(255,216,51); fill-rule: nonzero; opacity: 1;" transform=" matrix(1 0 0 1 0 0) " stroke-linecap="round"/>
	<path d="M 24.252 80.442 c -0.256 0 -0.515 -0.065 -0.753 -0.202 c -0.721 -0.416 -0.969 -1.338 -0.552 -2.06 l 4.99 -8.643 c 0.416 -0.722 1.339 -0.969 2.06 -0.552 c 0.721 0.416 0.969 1.338 0.552 2.06 l -4.99 8.643 C 25.281 80.172 24.774 80.442 24.252 80.442 z" style="stroke: none; stroke-width: 1; stroke-dasharray: none; stroke-linecap: butt; stroke-linejoin: miter; stroke-miterlimit: 10; fill: rgb(255,216,51); fill-rule: nonzero; opacity: 1;" transform=" matrix(1 0 0 1 0 0) " stroke-linecap="round"/>
	<path d="M 17.708 28.753 c -0.256 0 -0.515 -0.065 -0.753 -0.203 l -8.642 -4.99 c -0.721 -0.416 -0.969 -1.339 -0.552 -2.06 c 0.417 -0.72 1.339 -0.968 2.06 -0.552 l 8.642 4.99 c 0.721 0.416 0.969 1.339 0.552 2.06 C 18.736 28.482 18.229 28.753 17.708 28.753 z" style="stroke: none; stroke-width: 1; stroke-dasharray: none; stroke-linecap: butt; stroke-linejoin: miter; stroke-miterlimit: 10; fill: rgb(255,216,51); fill-rule: nonzero; opacity: 1;" transform=" matrix(1 0 0 1 0 0) " stroke-linecap="round"/>
	<path d="M 80.932 65.255 c -0.256 0 -0.516 -0.065 -0.753 -0.202 l -8.642 -4.99 c -0.722 -0.416 -0.968 -1.338 -0.552 -2.06 c 0.415 -0.722 1.34 -0.968 2.06 -0.552 l 8.642 4.99 c 0.722 0.416 0.968 1.338 0.552 2.06 C 81.96 64.985 81.452 65.255 80.932 65.255 z" style="stroke: none; stroke-width: 1; stroke-dasharray: none; stroke-linecap: butt; stroke-linejoin: miter; stroke-miterlimit: 10; fill: rgb(255,216,51); fill-rule: nonzero; opacity: 1;" transform=" matrix(1 0 0 1 0 0) " stroke-linecap="round"/>
	<path d="M 29.245 17.218 c -0.521 0 -1.028 -0.271 -1.308 -0.755 l -4.99 -8.642 c -0.417 -0.721 -0.169 -1.644 0.552 -2.06 c 0.722 -0.416 1.644 -0.169 2.06 0.552 l 4.99 8.642 c 0.417 0.721 0.169 1.644 -0.552 2.06 C 29.76 17.153 29.501 17.218 29.245 17.218 z" style="stroke: none; stroke-width: 1; stroke-dasharray: none; stroke-linecap: butt; stroke-linejoin: miter; stroke-miterlimit: 10; fill: rgb(255,216,51); fill-rule: nonzero; opacity: 1;" transform=" matrix(1 0 0 1 0 0) " stroke-linecap="round"/>
	<path d="M 65.747 80.442 c -0.52 0 -1.028 -0.27 -1.307 -0.754 l -4.99 -8.643 c -0.416 -0.722 -0.17 -1.644 0.552 -2.06 c 0.721 -0.417 1.644 -0.171 2.06 0.552 l 4.99 8.643 c 0.416 0.722 0.17 1.644 -0.552 2.06 C 66.262 80.377 66.003 80.442 65.747 80.442 z" style="stroke: none; stroke-width: 1; stroke-dasharray: none; stroke-linecap: butt; stroke-linejoin: miter; stroke-miterlimit: 10; fill: rgb(255,216,51); fill-rule: nonzero; opacity: 1;" transform=" matrix(1 0 0 1 0 0) " stroke-linecap="round"/>
</g>
</svg>